# xmcd CD database file
#
# Track frame offsets:
#	150
#	23750
#	39495
#	49567
#
# Disc length: 891 seconds
#
# Revision: 0
# Processed by: cddbd v1.5.1PL2 Copyright (c) Steve Scherf et al.
# Submitted via: CDex 1.51
#
DISCID=25037904
DTITLE=KOOLOGI - 爆音の宝石
DYEAR=2005
DGENRE=Blues
TTITLE0=Wailing soul(MIYAKO MIX)
TTITLE1=爆音の宝石
TTITLE2=Fujiyama Already(FULL Ver)
TTITLE3=Guilty Way(DANCEHALL MIX) by IPPEI
EXTD=YEAR: 2005
EXTT0=
EXTT1=
EXTT2=
EXTT3=
PLAYORDER=
